# xmcd CD database file
#
# Track frame offsets:
#	150
#	2309
#	20523
#	40112
#	64607
#	84269
#	114815
#	142933
#
# Disc length: 2082 seconds
#
# Revision: 4
# Processed by: cddbd v1.5.2PL0 Copyright (c) Steve Scherf et al.
# Submitted via: CDex 1.70beta2
#
DISCID=4b082008
DTITLE=Jumpsteady - The Chaos Theory
DYEAR=2002
DGENRE=Rap
TTITLE0=Intro
TTITLE1=Outcha Mouth (feat Jamie Madrox)
TTITLE2=In The Last Second (feat Violent J)
TTITLE3=Mad Mad World (feat ICP)
TTITLE4=Chaos Theory (feat Jamie Madrox)
TTITLE5=Ninjas In Action (feat ABK, Blaze, ICP, Twiztid, Syn and Legs Diamond)
TTITLE6=Joke Ya Mind (feat Violent J)
TTITLE7=Sammy Song (feat Samantha)
EXTD=YEAR: 2002
EXTT0=
EXTT1=
EXTT2=
EXTT3=
EXTT4=
EXTT5=
EXTT6=
EXTT7=
PLAYORDER=
